<svg width="24" height="18" viewBox="0 0 24 18" fill="none" xmlns="http://www.w3.org/2000/svg">
<path d="M22.2913 1.09214L8.47229 14.9101C8.37938 15.0034 8.26897 15.0774 8.14738 15.1279C8.0258 15.1784 7.89544 15.2044 7.76379 15.2044C7.63214 15.2044 7.50178 15.1784 7.38019 15.1279C7.25861 15.0774 7.1482 15.0034 7.05529 14.9101L1.71129 9.56114C1.61838 9.46786 1.50797 9.39385 1.38638 9.34335C1.2648 9.29285 1.13444 9.26685 1.00279 9.26685C0.871135 9.26685 0.740777 9.29285 0.619195 9.34335C0.497612 9.39385 0.387199 9.46786 0.294289 9.56114C0.201012 9.65405 0.127 9.76447 0.0764983 9.88605C0.0259967 10.0076 0 10.138 0 10.2696C0 10.4013 0.0259967 10.5317 0.0764983 10.6532C0.127 10.7748 0.201012 10.8852 0.294289 10.9781L5.64029 16.3231C6.20424 16.886 6.96849 17.2022 7.76529 17.2022C8.56209 17.2022 9.32634 16.886 9.89029 16.3231L23.7083 2.50814C23.8014 2.41525 23.8753 2.3049 23.9257 2.18341C23.9761 2.06192 24.0021 1.93168 24.0021 1.80014C24.0021 1.66861 23.9761 1.53836 23.9257 1.41687C23.8753 1.29538 23.8014 1.18503 23.7083 1.09214C23.6154 0.998864 23.505 0.924852 23.3834 0.87435C23.2618 0.823848 23.1314 0.797852 22.9998 0.797852C22.8681 0.797852 22.7378 0.823848 22.6162 0.87435C22.4946 0.924852 22.3842 0.998864 22.2913 1.09214Z" fill="url(#paint0_linear_421_186)"/>
<defs>
<linearGradient id="paint0_linear_421_186" x1="20.9268" y1="9.00002" x2="5.10044" y2="9.00002" gradientUnits="userSpaceOnUse">
<stop stop-color="#E77460"/>
<stop offset="1" stop-color="#E54A64"/>
</linearGradient>
</defs>
</svg>
