<svg width="41" height="31" viewBox="0 0 41 31" fill="none" xmlns="http://www.w3.org/2000/svg">
<path d="M41.0003 26.0377C41.0003 27.2459 40.5203 28.4046 39.666 29.259C38.8117 30.1133 37.6529 30.5933 36.4447 30.5933H4.55559C3.34737 30.5933 2.18864 30.1133 1.3343 29.259C0.479963 28.4046 0 27.2459 0 26.0377V5.53752C0 4.3293 0.479963 3.17057 1.3343 2.31623C2.18864 1.4619 3.34737 0.981934 4.55559 0.981934H36.4447C37.6529 0.981934 38.8117 1.4619 39.666 2.31623C40.5203 3.17057 41.0003 4.3293 41.0003 5.53752V26.0377Z" fill="#009B3A"/>
<path d="M37.2738 15.7879L20.5002 28.457L3.72648 15.7879L20.5002 3.11768L37.2738 15.7879Z" fill="#FEDF01"/>
<path d="M20.4728 23.0562C24.5349 23.0562 27.8278 19.7632 27.8278 15.7012C27.8278 11.6391 24.5349 8.34619 20.4728 8.34619C16.4108 8.34619 13.1178 11.6391 13.1178 15.7012C13.1178 19.7632 16.4108 23.0562 20.4728 23.0562Z" fill="#002776"/>
<path d="M13.9822 12.2423C13.6001 12.9621 13.3414 13.7409 13.2169 14.5463C17.7668 14.216 23.9419 16.6999 26.5921 19.7795C27.05 19.0916 27.3893 18.3217 27.5978 17.4972C24.3268 14.2992 18.5811 12.2241 13.9822 12.2423Z" fill="#CBE9D4"/>
<path d="M13.6668 16.0532H14.8057V17.1921H13.6668V16.0532ZM14.8057 18.331H15.9446V19.4699H14.8057V18.331Z" fill="#88C9F9"/>
<path d="M17.0835 16.0532H18.2224V17.1921H17.0835V16.0532ZM19.3613 17.1921H20.5002V18.331H19.3613V17.1921ZM23.9168 19.4699H25.0557V20.6088H23.9168V19.4699ZM20.5002 20.6088H21.6391V21.7477H20.5002V20.6088ZM23.9168 13.7754H25.0557V14.9143H23.9168V13.7754Z" fill="#55ACEE"/>
<path d="M21.639 18.3311H22.7779V19.47H21.639V18.3311Z" fill="#3B88C3"/>
</svg>
