<svg width="25" height="26" viewBox="0 0 25 26" fill="none" xmlns="http://www.w3.org/2000/svg">
<path d="M7.32305 0.587422C5.99304 0.650173 5.08479 0.862423 4.29079 1.17442C3.46903 1.49468 2.77253 1.92443 2.07953 2.61993C1.38653 3.31543 0.959774 4.01243 0.641772 4.83544C0.334021 5.63119 0.125521 6.54019 0.0667705 7.87095C0.0080203 9.2017 -0.00497975 9.62945 0.00152027 13.024C0.0080203 16.4185 0.0230204 16.844 0.0875206 18.1775C0.151021 19.5072 0.362521 20.4152 0.674523 21.2095C0.995274 22.0312 1.42453 22.7275 2.12028 23.4208C2.81603 24.114 3.51253 24.5398 4.33754 24.8583C5.13254 25.1655 6.04179 25.375 7.3723 25.4333C8.7028 25.4915 9.13105 25.505 12.5246 25.4985C15.9181 25.492 16.3453 25.477 17.6786 25.4138C19.0118 25.3505 19.9151 25.1375 20.7096 24.827C21.5313 24.5055 22.2281 24.077 22.9208 23.381C23.6136 22.685 24.0401 21.9875 24.3579 21.164C24.6659 20.369 24.8751 19.4597 24.9329 18.1302C24.9911 16.796 25.0049 16.37 24.9984 12.976C24.9919 9.58195 24.9766 9.15645 24.9134 7.82345C24.8501 6.49044 24.6384 5.58519 24.3266 4.79044C24.0054 3.96868 23.5766 3.27293 22.8811 2.57918C22.1856 1.88543 21.4876 1.45918 20.6643 1.14217C19.8688 0.834423 18.9601 0.624672 17.6296 0.567172C16.2991 0.509672 15.8708 0.494922 12.4761 0.501422C9.0813 0.507922 8.6563 0.522422 7.32305 0.587422ZM7.46905 23.1845C6.25029 23.1315 5.58854 22.929 5.14754 22.7595C4.56354 22.5345 4.14753 22.2625 3.70803 21.8272C3.26853 21.392 2.99853 20.9745 2.77053 20.3917C2.59928 19.9507 2.39303 19.2897 2.33603 18.071C2.27403 16.7537 2.26103 16.3582 2.25378 13.021C2.24653 9.6837 2.25928 9.2887 2.31703 7.97095C2.36903 6.75319 2.57278 6.09069 2.74203 5.64994C2.96703 5.06519 3.23803 4.64994 3.67428 4.21068C4.11053 3.77143 4.52679 3.50093 5.11004 3.27293C5.55054 3.10093 6.21154 2.89643 7.4298 2.83843C8.74805 2.77593 9.14305 2.76343 12.4798 2.75618C15.8166 2.74893 16.2126 2.76143 17.5313 2.81943C18.7491 2.87243 19.4118 3.07418 19.8521 3.24443C20.4363 3.46943 20.8521 3.73968 21.2913 4.17669C21.7306 4.61369 22.0013 5.02844 22.2293 5.61294C22.4016 6.05219 22.6061 6.71294 22.6636 7.93195C22.7263 9.2502 22.7406 9.64545 22.7466 12.982C22.7526 16.3185 22.7408 16.7147 22.6831 18.032C22.6298 19.2507 22.4278 19.9127 22.2581 20.3542C22.0331 20.938 21.7618 21.3542 21.3253 21.7932C20.8888 22.2322 20.4731 22.5027 19.8896 22.7307C19.4496 22.9025 18.7878 23.1075 17.5706 23.1655C16.2523 23.2275 15.8573 23.2405 12.5193 23.2477C9.1813 23.255 8.78755 23.2415 7.4693 23.1845M17.6593 6.31919C17.6598 6.61589 17.7483 6.90577 17.9136 7.15218C18.0788 7.39859 18.3134 7.59046 18.5877 7.70352C18.862 7.81658 19.1637 7.84575 19.4546 7.78734C19.7455 7.72894 20.0125 7.58559 20.2219 7.37541C20.4313 7.16523 20.5737 6.89767 20.6311 6.60657C20.6884 6.31547 20.6581 6.0139 20.5441 5.74001C20.43 5.46612 20.2373 5.2322 19.9902 5.06785C19.7432 4.9035 19.453 4.81609 19.1563 4.81669C18.7586 4.81748 18.3775 4.97621 18.0967 5.25797C17.816 5.53973 17.6587 5.92145 17.6593 6.31919ZM6.08179 13.0125C6.08879 16.5575 8.9678 19.4247 12.5121 19.418C16.0563 19.4112 18.9256 16.5325 18.9188 12.9875C18.9121 9.44245 16.0323 6.57444 12.4876 6.58144C8.9428 6.58844 6.07504 9.46795 6.08179 13.0125ZM8.3333 13.008C8.33167 12.1839 8.57445 11.3778 9.03094 10.6917C9.48744 10.0055 10.1371 9.47018 10.8979 9.1533C11.6586 8.83642 12.4963 8.75225 13.3049 8.91142C14.1134 9.0706 14.8567 9.46597 15.4406 10.0475C16.0244 10.6291 16.4228 11.3708 16.5851 12.1787C16.7475 12.9867 16.6667 13.8246 16.3528 14.5866C16.0389 15.3486 15.5062 16.0005 14.8218 16.4597C14.1375 16.9189 13.3324 17.1648 12.5083 17.1665C11.9611 17.1676 11.419 17.061 10.9131 16.8526C10.4071 16.6442 9.9471 16.3382 9.5594 15.952C9.1717 15.5659 8.86387 15.1071 8.6535 14.602C8.44312 14.0968 8.33432 13.5552 8.3333 13.008Z" fill="white"/>
</svg>
