<svg width="26" height="26" viewBox="0 0 26 26" fill="none" xmlns="http://www.w3.org/2000/svg">
<path d="M21.8877 21.7147H18.1834V15.9709C18.1834 14.6012 18.1588 12.838 16.2569 12.838C14.3276 12.838 14.0324 14.3303 14.0324 15.8712V21.7143H10.3282V9.90269H13.8842V11.5169H13.934C14.2899 10.9144 14.8041 10.4188 15.422 10.0828C16.0399 9.74677 16.7382 9.583 17.4426 9.60889C21.197 9.60889 21.8892 12.054 21.8892 15.235L21.8877 21.7147ZM6.14858 8.28812C5.72343 8.28819 5.30779 8.16344 4.95425 7.92963C4.60071 7.69581 4.32515 7.36344 4.16238 6.97455C3.99961 6.58566 3.95695 6.15771 4.03982 5.74482C4.12269 5.33193 4.32736 4.95265 4.62793 4.65493C4.9285 4.35721 5.31149 4.15442 5.72846 4.07222C6.14543 3.99002 6.57764 4.0321 6.97046 4.19312C7.36328 4.35415 7.69905 4.62689 7.93531 4.97687C8.17158 5.32685 8.29773 5.73834 8.2978 6.1593C8.29786 6.43881 8.2423 6.71559 8.13432 6.97385C8.02633 7.2321 7.86805 7.46677 7.66848 7.66444C7.46891 7.86212 7.23195 8.01894 6.97116 8.12595C6.71038 8.23296 6.43087 8.28807 6.14858 8.28812ZM8.00069 21.7147H4.29261V9.90269H8.00069V21.7147ZM23.7344 0.625222H2.43125C1.94773 0.619819 1.4818 0.80471 1.13589 1.13927C0.789974 1.47382 0.592373 1.93067 0.586472 2.40942V23.5902C0.592171 24.0692 0.789656 24.5264 1.13556 24.8613C1.48146 25.1962 1.94749 25.3814 2.43125 25.3763H23.7344C24.2191 25.3824 24.6864 25.1976 25.0337 24.8627C25.381 24.5278 25.5798 24.0702 25.5865 23.5902V2.40789C25.5796 1.92819 25.3806 1.47082 25.0333 1.13628C24.6861 0.801729 24.2188 0.617366 23.7344 0.623693" fill="white"/>
</svg>
