<svg width="18" height="19" viewBox="0 0 18 19" fill="none" xmlns="http://www.w3.org/2000/svg">
<g clip-path="url(#clip0_324_845)">
<path d="M17.2681 8.66114H1.1681C0.763925 8.66114 0.436279 8.98879 0.436279 9.39296C0.436279 9.79714 0.763925 10.1248 1.1681 10.1248H17.2681C17.6723 10.1248 17.9999 9.79714 17.9999 9.39296C17.9999 8.98879 17.6723 8.66114 17.2681 8.66114Z" fill="#E7E6EA"/>
<path d="M17.2681 3.53886H1.1681C0.763925 3.53886 0.436279 3.86651 0.436279 4.27068C0.436279 4.67485 0.763925 5.00249 1.1681 5.00249H17.2681C17.6723 5.00249 17.9999 4.67485 17.9999 4.27068C17.9999 3.86651 17.6723 3.53886 17.2681 3.53886Z" fill="#E7E6EA"/>
<path d="M17.2681 13.7841H1.1681C0.763925 13.7841 0.436279 14.1117 0.436279 14.5159C0.436279 14.9201 0.763925 15.2477 1.1681 15.2477H17.2681C17.6723 15.2477 17.9999 14.9201 17.9999 14.5159C17.9999 14.1117 17.6723 13.7841 17.2681 13.7841Z" fill="#E7E6EA"/>
</g>
<defs>
<clipPath id="clip0_324_845">
<rect width="17.5636" height="17.5636" fill="white" transform="translate(0.436279 0.611364)"/>
</clipPath>
</defs>
</svg>
