<svg width="31" height="22" viewBox="0 0 31 22" fill="none" xmlns="http://www.w3.org/2000/svg">
<path d="M12.5183 15.4456V6.55503L20.3592 11.0005L12.5183 15.4456ZM29.9595 3.75758C29.6145 2.46284 28.5979 1.44328 27.3073 1.09725C24.9678 0.468395 15.5865 0.468395 15.5865 0.468395C15.5865 0.468395 6.20522 0.468395 3.86566 1.09725C2.57493 1.44328 1.55833 2.46284 1.21336 3.75758C0.586472 6.10421 0.586472 11.0003 0.586472 11.0003C0.586472 11.0003 0.586472 15.8963 1.21336 18.2431C1.55833 19.5378 2.57493 20.5573 3.86566 20.9035C6.20522 21.5322 15.5865 21.5322 15.5865 21.5322C15.5865 21.5322 24.9678 21.5322 27.3073 20.9035C28.5979 20.5573 29.6145 19.5378 29.9595 18.2431C30.5865 15.8963 30.5865 11.0003 30.5865 11.0003C30.5865 11.0003 30.5865 6.10421 29.9595 3.75758Z" fill="white"/>
</svg>
