<svg width="65" height="64" viewBox="0 0 65 64" fill="none" xmlns="http://www.w3.org/2000/svg">
<g clip-path="url(#clip0_345_1192)">
<path d="M32.5003 16C30.3906 16 28.3283 16.6256 26.5742 17.7977C24.8201 18.9697 23.4529 20.6356 22.6456 22.5847C21.8382 24.5338 21.627 26.6785 22.0386 28.7476C22.4502 30.8168 23.4661 32.7174 24.9578 34.2091C26.4496 35.7009 28.3502 36.7168 30.4193 37.1284C32.4885 37.54 34.6332 37.3287 36.5822 36.5214C38.5313 35.714 40.1972 34.3469 41.3693 32.5927C42.5414 30.8386 43.167 28.7763 43.167 26.6667C43.167 23.8377 42.0431 21.1246 40.0428 19.1242C38.0424 17.1238 35.3293 16 32.5003 16ZM32.5003 32C31.4455 32 30.4143 31.6872 29.5372 31.1012C28.6602 30.5151 27.9766 29.6822 27.5729 28.7076C27.1693 27.7331 27.0636 26.6608 27.2694 25.6262C27.4752 24.5916 27.9832 23.6413 28.7291 22.8954C29.4749 22.1496 30.4252 21.6416 31.4598 21.4358C32.4944 21.23 33.5667 21.3356 34.5413 21.7393C35.5158 22.143 36.3488 22.8266 36.9348 23.7036C37.5208 24.5807 37.8336 25.6118 37.8336 26.6667C37.8336 28.0812 37.2717 29.4377 36.2715 30.4379C35.2713 31.4381 33.9148 32 32.5003 32Z" fill="url(#paint0_linear_345_1192)"/>
<path d="M32.4998 64.0007C30.2543 64.0122 28.0388 63.4855 26.0386 62.4648C24.0385 61.4441 22.312 59.9591 21.0038 58.134C10.8411 44.1154 5.68646 33.5767 5.68646 26.8087C5.68646 19.6974 8.51143 12.8773 13.5399 7.84881C18.5684 2.82033 25.3885 -0.00463867 32.4998 -0.00463867C39.6111 -0.00463867 46.4312 2.82033 51.4597 7.84881C56.4882 12.8773 59.3131 19.6974 59.3131 26.8087C59.3131 33.5767 54.1585 44.1154 43.9958 58.134C42.6875 59.9591 40.9611 61.4441 38.961 62.4648C36.9608 63.4855 34.7453 64.0122 32.4998 64.0007ZM32.4998 5.8167C26.9329 5.82305 21.5958 8.0373 17.6595 11.9737C13.7231 15.9101 11.5088 21.2471 11.5025 26.814C11.5025 32.174 16.5505 42.086 25.7131 54.7234C26.491 55.7948 27.5114 56.6668 28.691 57.2681C29.8706 57.8694 31.1758 58.1828 32.4998 58.1828C33.8238 58.1828 35.129 57.8694 36.3086 57.2681C37.4881 56.6668 38.5086 55.7948 39.2865 54.7234C48.4491 42.086 53.4971 32.174 53.4971 26.814C53.4908 21.2471 51.2765 15.9101 47.3401 11.9737C43.4037 8.0373 38.0667 5.82305 32.4998 5.8167Z" fill="url(#paint1_linear_345_1192)"/>
</g>
<defs>
<linearGradient id="paint0_linear_345_1192" x1="40.4336" y1="26.6667" x2="26.367" y2="26.6667" gradientUnits="userSpaceOnUse">
<stop stop-color="#E77460"/>
<stop offset="1" stop-color="#E54A64"/>
</linearGradient>
<linearGradient id="paint1_linear_345_1192" x1="52.4422" y1="31.9981" x2="17.0821" y2="31.9981" gradientUnits="userSpaceOnUse">
<stop stop-color="#E77460"/>
<stop offset="1" stop-color="#E54A64"/>
</linearGradient>
<clipPath id="clip0_345_1192">
<rect width="64" height="64" fill="white" transform="translate(0.5)"/>
</clipPath>
</defs>
</svg>
