<svg width="65" height="64" viewBox="0 0 65 64" fill="none" xmlns="http://www.w3.org/2000/svg">
<g clip-path="url(#clip0_345_1199)">
<path d="M59.7199 13.4112C57.3299 9.42784 53.0809 6.77222 48.3008 6.77222H16.4336C11.6535 6.77222 7.40462 9.42784 5.0145 13.4112C2.09338 18.7225 0.5 24.5648 0.5 30.6727C0.5 45.2785 6.34237 57.2287 13.778 57.2287C17.7614 57.2287 20.9481 53.5108 23.3381 45.8096C23.6036 44.7473 24.6659 43.9507 25.9937 43.9507H39.0062C40.0685 43.9507 41.1308 44.7473 41.6619 45.8096C44.0519 53.5108 47.2386 57.2287 51.222 57.2287C58.6576 57.2287 64.5 45.2785 64.5 30.6727C64.2345 24.5648 62.6411 18.7225 59.7199 13.4112ZM50.9564 51.9175C50.1598 51.9175 48.3008 49.793 46.4419 44.2162C45.3796 40.764 42.1929 38.6395 38.7406 38.6395H25.9937C22.5415 38.6395 19.3547 41.0295 18.2925 44.2162C16.4336 49.793 14.5746 51.9175 13.778 51.9175C11.1224 51.9175 5.81125 43.6851 5.81125 30.6727C5.81125 25.6271 7.139 20.5815 9.52913 16.067C11.1225 13.677 13.7781 12.0836 16.4338 12.0836H48.301C50.9566 12.0836 53.6122 13.677 55.2056 16.067C57.5956 20.5815 58.9235 25.6271 58.9235 30.6727C58.9232 43.6851 53.612 51.9175 50.9564 51.9175Z" fill="url(#paint0_linear_345_1199)"/>
<path d="M24.5001 24H21.8335V21.3334C21.8335 19.7334 20.7669 18.6667 19.1669 18.6667C17.5669 18.6667 16.5002 19.7334 16.5002 21.3334V24H13.8336C12.2336 24 11.167 25.0666 11.167 26.6666C11.167 28.2666 12.2336 29.3332 13.8336 29.3332H16.5001V32C16.5001 33.6 17.5667 34.6666 19.1668 34.6666C20.7668 34.6666 21.8334 33.6 21.8334 32V29.3333H24.5001C26.1001 29.3333 27.1668 28.2667 27.1668 26.6667C27.1668 25.0666 26.1001 24 24.5001 24Z" fill="url(#paint1_linear_345_1199)"/>
<path d="M49.8334 26.6665C52.0425 26.6665 53.8334 24.8756 53.8334 22.6665C53.8334 20.4574 52.0425 18.6665 49.8334 18.6665C47.6242 18.6665 45.8334 20.4574 45.8334 22.6665C45.8334 24.8756 47.6242 26.6665 49.8334 26.6665Z" fill="url(#paint2_linear_345_1199)"/>
<path d="M41.8334 34.6665C44.0425 34.6665 45.8334 32.8757 45.8334 30.6665C45.8334 28.4574 44.0425 26.6665 41.8334 26.6665C39.6242 26.6665 37.8334 28.4574 37.8334 30.6665C37.8334 32.8757 39.6242 34.6665 41.8334 34.6665Z" fill="url(#paint3_linear_345_1199)"/>
</g>
<defs>
<linearGradient id="paint0_linear_345_1199" x1="56.3" y1="32.0005" x2="14.1" y2="32.0005" gradientUnits="userSpaceOnUse">
<stop stop-color="#E77460"/>
<stop offset="1" stop-color="#E54A64"/>
</linearGradient>
<linearGradient id="paint1_linear_345_1199" x1="25.1168" y1="26.6667" x2="14.5669" y2="26.6667" gradientUnits="userSpaceOnUse">
<stop stop-color="#E77460"/>
<stop offset="1" stop-color="#E54A64"/>
</linearGradient>
<linearGradient id="paint2_linear_345_1199" x1="52.8084" y1="22.6665" x2="47.5334" y2="22.6665" gradientUnits="userSpaceOnUse">
<stop stop-color="#E77460"/>
<stop offset="1" stop-color="#E54A64"/>
</linearGradient>
<linearGradient id="paint3_linear_345_1199" x1="44.8084" y1="30.6665" x2="39.5334" y2="30.6665" gradientUnits="userSpaceOnUse">
<stop stop-color="#E77460"/>
<stop offset="1" stop-color="#E54A64"/>
</linearGradient>
<clipPath id="clip0_345_1199">
<rect width="64" height="64" fill="white" transform="translate(0.5)"/>
</clipPath>
</defs>
</svg>
