<svg width="65" height="64" viewBox="0 0 65 64" fill="none" xmlns="http://www.w3.org/2000/svg">
<g clip-path="url(#clip0_345_1077)">
<path d="M63.7524 59.4674L47.8581 43.573C57.1819 32.1697 55.4962 15.3669 44.0928 6.04316C32.6894 -3.28059 15.8868 -1.59509 6.56294 9.80829C-2.76093 21.2117 -1.07518 38.0144 10.3282 47.3383C20.1504 55.3694 34.2707 55.3694 44.0929 47.3383L59.9873 63.2327C61.0452 64.2543 62.7309 64.225 63.7526 63.1672C64.7491 62.1353 64.7491 60.4993 63.7524 59.4674ZM5.95044 26.7333C5.95044 14.9682 15.4879 5.43066 27.2531 5.43066C39.0182 5.43066 48.5557 14.9682 48.5557 26.7333C48.5557 38.4984 39.0182 48.0359 27.2531 48.0359C15.4934 48.0227 5.96369 38.4929 5.95044 26.7333ZM32.5788 16.0819C30.5896 16.0909 28.6809 16.8695 27.2532 18.2548C25.8254 16.8697 23.9168 16.0909 21.9276 16.0819C17.3734 16.2397 13.8029 20.0482 13.9391 24.6029C13.9391 29.9285 19.3739 35.422 23.9353 39.0887C25.8769 40.635 28.6294 40.635 30.5711 39.0887C35.1324 35.4219 40.5673 29.9285 40.5673 24.6029C40.7033 20.0482 37.1329 16.2397 32.5788 16.0819ZM27.2691 34.9348C22.3322 30.9672 19.2646 26.9995 19.2646 24.603C19.1317 22.9898 20.3166 21.5678 21.9274 21.4077C23.5382 21.5678 24.7232 22.9898 24.5903 24.603C24.5903 26.0737 25.7824 27.2659 27.2532 27.2659C28.7238 27.2659 29.9161 26.0738 29.9161 24.603C29.7832 22.9898 30.9681 21.5678 32.5789 21.4077C34.1897 21.5678 35.3747 22.9898 35.2418 24.603C35.2416 26.9995 32.1741 30.9672 27.2691 34.9348Z" fill="url(#paint0_linear_345_1077)"/>
</g>
<defs>
<linearGradient id="paint0_linear_345_1077" x1="12.3317" y1="55.1855" x2="41.7138" y2="26.0032" gradientUnits="userSpaceOnUse">
<stop stop-color="#E54A64"/>
<stop offset="1" stop-color="#FE9652"/>
</linearGradient>
<clipPath id="clip0_345_1077">
<rect width="64" height="64" fill="white" transform="translate(0.5)"/>
</clipPath>
</defs>
</svg>
