<svg width="65" height="64" viewBox="0 0 65 64" fill="none" xmlns="http://www.w3.org/2000/svg">
<g clip-path="url(#clip0_345_1180)">
<path d="M3.16667 12.6674H10.4627C11.035 14.7733 12.2845 16.6324 14.0182 17.9578C15.7519 19.2833 17.8737 20.0014 20.056 20.0014C22.2383 20.0014 24.3601 19.2833 26.0938 17.9578C27.8275 16.6324 29.077 14.7733 29.6493 12.6674H61.8333C62.5406 12.6674 63.2189 12.3864 63.719 11.8863C64.2191 11.3862 64.5 10.7079 64.5 10.0007C64.5 9.29345 64.2191 8.61517 63.719 8.11507C63.2189 7.61498 62.5406 7.33402 61.8333 7.33402H29.6493C29.077 5.22807 27.8275 3.36897 26.0938 2.04354C24.3601 0.71811 22.2383 0 20.056 0C17.8737 0 15.7519 0.71811 14.0182 2.04354C12.2845 3.36897 11.035 5.22807 10.4627 7.33402H3.16667C2.45942 7.33402 1.78115 7.61498 1.28105 8.11507C0.780952 8.61517 0.5 9.29345 0.5 10.0007C0.5 10.7079 0.780952 11.3862 1.28105 11.8863C1.78115 12.3864 2.45942 12.6674 3.16667 12.6674ZM20.0547 5.33402C20.9776 5.33402 21.8799 5.60772 22.6473 6.1205C23.4148 6.63328 24.0129 7.36211 24.3661 8.21483C24.7193 9.06756 24.8117 10.0059 24.6317 10.9111C24.4516 11.8164 24.0071 12.6479 23.3545 13.3005C22.7019 13.9532 21.8703 14.3976 20.9651 14.5777C20.0598 14.7578 19.1215 14.6653 18.2688 14.3121C17.4161 13.9589 16.6873 13.3608 16.1745 12.5934C15.6617 11.8259 15.388 10.9237 15.388 10.0007C15.3894 8.76345 15.8815 7.57728 16.7564 6.70242C17.6313 5.82755 18.8174 5.33544 20.0547 5.33402Z" fill="url(#paint0_linear_345_1180)"/>
<path d="M61.8333 29.331H54.5373C53.9659 27.2246 52.717 25.3648 50.9834 24.0388C49.2498 22.7128 47.1279 21.9944 44.9453 21.9944C42.7627 21.9944 40.6409 22.7128 38.9072 24.0388C37.1736 25.3648 35.9247 27.2246 35.3533 29.331H3.16664C2.45939 29.331 1.78112 29.6119 1.28102 30.112C0.780921 30.6121 0.499969 31.2904 0.499969 31.9977C0.499969 32.7049 0.780921 33.3832 1.28102 33.8833C1.78112 34.3834 2.45939 34.6643 3.16664 34.6643H35.3533C35.9247 36.7708 37.1736 38.6305 38.9072 39.9565C40.6409 41.2825 42.7627 42.0009 44.9453 42.0009C47.1279 42.0009 49.2498 41.2825 50.9834 39.9565C52.717 38.6305 53.9659 36.7708 54.5373 34.6643H61.8333C62.5406 34.6643 63.2188 34.3834 63.7189 33.8833C64.219 33.3832 64.5 32.7049 64.5 31.9977C64.5 31.2904 64.219 30.6121 63.7189 30.112C63.2188 29.6119 62.5406 29.331 61.8333 29.331ZM44.9453 36.6643C44.0223 36.6643 43.1201 36.3906 42.3526 35.8778C41.5852 35.3651 40.9871 34.6362 40.6339 33.7835C40.2807 32.9308 40.1882 31.9925 40.3683 31.0872C40.5484 30.182 40.9928 29.3505 41.6455 28.6978C42.2981 28.0452 43.1296 27.6007 44.0349 27.4207C44.9401 27.2406 45.8784 27.333 46.7312 27.6862C47.5839 28.0394 48.3127 28.6376 48.8255 29.405C49.3383 30.1724 49.612 31.0747 49.612 31.9977C49.6106 33.2349 49.1184 34.4211 48.2436 35.2959C47.3687 36.1708 46.1825 36.6629 44.9453 36.6643Z" fill="url(#paint1_linear_345_1180)"/>
<path d="M61.8333 51.3342H29.6493C29.0769 49.2283 27.8275 47.3692 26.0938 46.0438C24.36 44.7184 22.2383 44.0002 20.056 44.0002C17.8736 44.0002 15.7519 44.7184 14.0182 46.0438C12.2844 47.3692 11.035 49.2283 10.4626 51.3342H3.16664C2.45939 51.3342 1.78112 51.6152 1.28102 52.1153C0.780921 52.6154 0.499969 53.2937 0.499969 54.0009C0.499969 54.7081 0.780921 55.3864 1.28102 55.8865C1.78112 56.3866 2.45939 56.6676 3.16664 56.6676H10.4626C11.035 58.7735 12.2844 60.6326 14.0182 61.958C15.7519 63.2834 17.8736 64.0016 20.056 64.0016C22.2383 64.0016 24.36 63.2834 26.0938 61.958C27.8275 60.6326 29.0769 58.7735 29.6493 56.6676H61.8333C62.5406 56.6676 63.2188 56.3866 63.7189 55.8865C64.219 55.3864 64.5 54.7081 64.5 54.0009C64.5 53.2937 64.219 52.6154 63.7189 52.1153C63.2188 51.6152 62.5406 51.3342 61.8333 51.3342ZM20.0546 58.6675C19.1317 58.6675 18.2294 58.3939 17.462 57.8811C16.6945 57.3683 16.0964 56.6395 15.7432 55.7867C15.39 54.934 15.2976 53.9957 15.4776 53.0905C15.6577 52.1852 16.1022 51.3537 16.7548 50.7011C17.4074 50.0484 18.239 49.604 19.1442 49.4239C20.0495 49.2439 20.9878 49.3363 21.8405 49.6895C22.6932 50.0427 23.422 50.6408 23.9348 51.4082C24.4476 52.1757 24.7213 53.0779 24.7213 54.0009C24.7192 55.2379 24.2268 56.4237 23.3521 57.2984C22.4774 58.1731 21.2917 58.6654 20.0546 58.6675Z" fill="url(#paint2_linear_345_1180)"/>
</g>
<defs>
<linearGradient id="paint0_linear_345_1180" x1="56.3" y1="10.0007" x2="14.1" y2="10.0007" gradientUnits="userSpaceOnUse">
<stop stop-color="#E77460"/>
<stop offset="1" stop-color="#E54A64"/>
</linearGradient>
<linearGradient id="paint1_linear_345_1180" x1="56.3" y1="31.9977" x2="14.1" y2="31.9977" gradientUnits="userSpaceOnUse">
<stop stop-color="#E77460"/>
<stop offset="1" stop-color="#E54A64"/>
</linearGradient>
<linearGradient id="paint2_linear_345_1180" x1="56.3" y1="54.0009" x2="14.1" y2="54.0009" gradientUnits="userSpaceOnUse">
<stop stop-color="#E77460"/>
<stop offset="1" stop-color="#E54A64"/>
</linearGradient>
<clipPath id="clip0_345_1180">
<rect width="64" height="64" fill="white" transform="translate(0.5)"/>
</clipPath>
</defs>
</svg>
