<svg width="60" height="60" viewBox="0 0 60 60" fill="none" xmlns="http://www.w3.org/2000/svg">
<g clip-path="url(#clip0_345_1196)">
<path d="M41.5752 7.25037C39.6078 5.58291 37.5453 3.83037 35.4453 1.92033C33.8343 0.455253 31.6586 -0.223731 29.5002 0.0653702C27.4087 0.341698 25.5477 1.53221 24.4203 3.31533C21.4402 8.29533 19.3331 13.7479 18.1902 19.4379C17.7417 18.7903 17.3439 18.1092 17.0002 17.4003C15.8161 14.9056 12.8339 13.8431 10.3392 15.0272C9.73525 15.3138 9.1949 15.7187 8.75018 16.2178C4.55686 20.5029 2.23221 26.2749 2.28518 32.2703C2.166 44.8717 10.6423 55.9355 22.8402 59.1003C25.1098 59.6714 27.4399 59.9668 29.7802 59.9803C29.8552 59.9803 30.6526 59.9728 30.9751 59.9503C45.9001 59.4669 57.7438 47.2181 57.7252 32.2853C57.7152 20.9604 50.2353 14.6103 41.5752 7.25037ZM29.7177 54.9628C27.8571 54.8212 26.0185 54.0676 24.6303 52.9478C22.4564 51.4096 21.018 49.1539 20.6753 46.5553C20.2503 42.5003 22.7503 37.1978 27.8578 31.2078C28.3934 30.5823 29.1769 30.2238 30.0004 30.2278C30.8132 30.2219 31.5862 30.5795 32.1079 31.2028C36.7879 36.7578 39.3579 41.8828 39.3579 45.6353C39.3435 50.5653 35.49 54.4653 30.5829 54.9403C30.3674 54.9612 30.0003 54.9928 29.7177 54.9628ZM43.9403 50.2078C43.7928 50.3228 43.6303 50.4153 43.4803 50.5253C44.0571 48.9575 44.3542 47.3007 44.3578 45.6302C44.3578 39.3128 39.7703 32.5427 35.9254 27.9752C34.4543 26.233 32.2906 25.2271 30.0103 25.2252H30.0003C27.7155 25.2211 25.5438 26.2201 24.0603 27.9576C17.9478 35.1177 15.1403 41.5501 15.7152 47.0776C15.8517 48.3608 16.1795 49.6164 16.6878 50.8026C10.7513 46.5012 7.25334 39.601 7.29272 32.2701C7.24443 27.5078 9.12248 22.9278 12.5002 19.5702C13.0769 20.769 13.7693 21.9085 14.5677 22.9727C15.6642 24.4551 17.5375 25.143 19.3327 24.7227C21.163 24.3178 22.5842 22.8742 22.9602 21.0377C23.9646 15.7287 25.884 10.6345 28.6327 5.98275C28.9709 5.45096 29.5295 5.09869 30.1552 5.02275C30.8544 4.92865 31.5593 5.14932 32.0802 5.62521C34.2252 7.57521 36.3303 9.37521 38.3302 11.0678C46.6752 18.1553 52.7077 23.2753 52.7077 32.2853C52.7292 39.2969 49.4925 45.921 43.9477 50.2127L43.9403 50.2078Z" fill="url(#paint0_linear_345_1196)"/>
</g>
<defs>
<linearGradient id="paint0_linear_345_1196" x1="50.6218" y1="29.9901" x2="14.0652" y2="29.9901" gradientUnits="userSpaceOnUse">
<stop stop-color="#E77460"/>
<stop offset="1" stop-color="#E54A64"/>
</linearGradient>
<clipPath id="clip0_345_1196">
<rect width="60" height="60" fill="white"/>
</clipPath>
</defs>
</svg>
