<svg width="100" height="53" viewBox="0 0 100 53" fill="none" xmlns="http://www.w3.org/2000/svg">
<path fill-rule="evenodd" clip-rule="evenodd" d="M0.911375 0.878886C2.12654 -0.292962 4.09671 -0.292962 5.31188 0.878886L27.4796 22.2563L49.6472 0.878886C50.2308 0.316145 51.0222 0 51.8475 0H96.8883C98.1305 0 99.2537 0.712482 99.7456 1.81248C100.237 2.91248 100.004 4.18922 99.1512 5.06038L78.2255 26.4404C77.6376 27.041 76.819 27.3814 75.9626 27.3814H54.9591V49.9992C54.9591 51.2129 54.201 52.307 53.0383 52.7715C51.8755 53.236 50.5372 52.9792 49.6472 52.121L27.4796 30.7436L5.31188 52.121C4.09671 53.2929 2.12654 53.2929 0.911375 52.121C-0.303792 50.9492 -0.303792 49.0492 0.911375 47.8774L23.0791 26.5L0.911375 5.12252C-0.303792 3.95067 -0.303792 2.05073 0.911375 0.878886ZM31.8801 26.5L48.7359 42.7549V24.3807C48.7359 22.7235 50.129 21.38 51.8475 21.38H74.6208L89.6726 6.00141H53.1364L31.8801 26.5Z" fill="url(#paint0_linear_320_836)"/>
<path d="M79.7765 38.55V42.2769H82.451V42.6955C82.451 42.8395 82.423 42.9386 82.367 42.9926C82.3203 43.0376 82.2223 43.0601 82.0729 43.0601H78.6563V33.9725C78.6563 33.8284 78.6797 33.7339 78.7264 33.6889C78.7824 33.6349 78.885 33.6079 79.0344 33.6079H82.451V34.0265C82.451 34.1705 82.4276 34.2695 82.381 34.3235C82.3436 34.3686 82.2503 34.3911 82.1009 34.3911H79.7765V37.7669H82.0309V38.1855C82.0309 38.3295 82.0076 38.4285 81.9609 38.4825C81.9236 38.5275 81.8302 38.55 81.6808 38.55H79.7765Z" fill="white"/>
<path d="M74.9031 39.3872L75.6732 41.3992H75.7572L75.5332 39.3467V33.9725C75.5332 33.8284 75.5565 33.7339 75.6032 33.6889C75.6592 33.6349 75.7619 33.6079 75.9112 33.6079H76.6534V42.6955C76.6534 42.8395 76.6254 42.9386 76.5694 42.9926C76.5227 43.0376 76.4247 43.0601 76.2753 43.0601H75.5472L72.9568 37.3888L72.1726 35.2148H72.0886L72.2987 37.1052V42.6955C72.2987 42.8395 72.2706 42.9386 72.2146 42.9926C72.168 43.0376 72.0699 43.0601 71.9206 43.0601H71.1785V33.9725C71.1785 33.8284 71.2018 33.7339 71.2485 33.6889C71.3045 33.6349 71.4072 33.6079 71.5565 33.6079H72.3127L74.9031 39.3872Z" fill="white"/>
<path d="M65.4727 41.5072C65.4727 41.7863 65.51 41.9843 65.5847 42.1014C65.6594 42.2184 65.8414 42.2769 66.1308 42.2769H67.391C67.6804 42.2769 67.8624 42.2184 67.9371 42.1014C68.0118 41.9843 68.0491 41.7863 68.0491 41.5072V35.1607C68.0491 34.8817 68.0118 34.6836 67.9371 34.5666C67.8624 34.4496 67.6804 34.3911 67.391 34.3911H66.1308C65.8414 34.3911 65.6594 34.4496 65.5847 34.5666C65.51 34.6836 65.4727 34.8817 65.4727 35.1607V41.5072ZM64.3525 34.8907C64.3525 34.4226 64.4505 34.094 64.6465 33.9049C64.8519 33.7069 65.1973 33.6079 65.6827 33.6079H67.8391C68.3245 33.6079 68.6652 33.7069 68.8612 33.9049C69.0666 34.094 69.1693 34.4226 69.1693 34.8907V41.7773C69.1693 42.2454 69.0666 42.5785 68.8612 42.7765C68.6652 42.9656 68.3245 43.0601 67.8391 43.0601H65.6827C65.1973 43.0601 64.8519 42.9656 64.6465 42.7765C64.4505 42.5785 64.3525 42.2454 64.3525 41.7773V34.8907Z" fill="white"/>
<path d="M58.525 43.0601C58.3757 43.0601 58.2777 43.0376 58.231 42.9926C58.1936 42.9386 58.175 42.8395 58.175 42.6955V42.2769L61.6475 34.3911H58.371V33.9725C58.371 33.8284 58.3897 33.7339 58.427 33.6889C58.4737 33.6349 58.5717 33.6079 58.7211 33.6079H62.4177C62.567 33.6079 62.6604 33.6349 62.6977 33.6889C62.7444 33.7339 62.7677 33.8284 62.7677 33.9725V34.3911L59.2812 42.2769H62.7257V42.6955C62.7257 42.8395 62.7024 42.9386 62.6557 42.9926C62.6184 43.0376 62.525 43.0601 62.3757 43.0601H58.525Z" fill="white"/>
<path fill-rule="evenodd" clip-rule="evenodd" d="M58.6542 12.0028C58.6542 10.8427 59.6294 9.90231 60.8323 9.90231H67.7557C68.9586 9.90231 69.9338 10.8427 69.9338 12.0028C69.9338 13.1629 68.9586 14.1033 67.7557 14.1033H60.8323C59.6294 14.1033 58.6542 13.1629 58.6542 12.0028Z" fill="url(#paint1_linear_320_836)"/>
<defs>
<linearGradient id="paint0_linear_320_836" x1="18.4375" y1="45.7125" x2="38.6631" y2="7.8106" gradientUnits="userSpaceOnUse">
<stop stop-color="#E54A64"/>
<stop offset="1" stop-color="#FE9652"/>
</linearGradient>
<linearGradient id="paint1_linear_320_836" x1="68.4886" y1="12.0028" x2="61.0511" y2="12.0028" gradientUnits="userSpaceOnUse">
<stop stop-color="#E77460"/>
<stop offset="1" stop-color="#E54A64"/>
</linearGradient>
</defs>
</svg>
